HIERARCHY
ROOT Hips
{
    OFFSET   0.000000   0.000000   0.000000
    CHANNELS 6 Xposition Yposition Zposition Zrotation Xrotation Yrotation
    JOINT Chest
    {
        OFFSET   0.000000   8.007230   0.000000
        CHANNELS 3 Zrotation Xrotation Yrotation
        JOINT Chest2
        {
            OFFSET   0.000000  22.077100   0.000000
            CHANNELS 3 Zrotation Xrotation Yrotation
            JOINT Neck
            {
                OFFSET   0.000000  23.254800  -0.000021
                CHANNELS 3 Zrotation Xrotation Yrotation
                JOINT Head
                {
                    OFFSET   0.000000  14.370000   1.956610
                    CHANNELS 3 Zrotation Xrotation Yrotation
                    End Site
                    {
                        OFFSET   0.000000  19.566000   0.000000
                    }
                }
            }
            JOINT LeftCollar
            {
                OFFSET   3.911900  19.017000  -0.467063
                CHANNELS 3 Zrotation Xrotation Yrotation
                JOINT LeftShoulder
                {
                    OFFSET  10.383700   0.000000   0.000000
                    CHANNELS 3 Zrotation Xrotation Yrotation
                    JOINT LeftElbow
                    {
                        OFFSET  26.662100   0.001529   0.000325
                        CHANNELS 3 Zrotation Xrotation Yrotation
                        JOINT LeftWrist
                        {
                            OFFSET  28.869000  -0.000011  -0.000096
                            CHANNELS 3 Zrotation Xrotation Yrotation
                            JOINT LeftFinger0
                            {
                                OFFSET   2.044650  -2.323460   3.252850
                                CHANNELS 3 Zrotation Xrotation Yrotation
                                JOINT LeftFinger01
                                {
                                    OFFSET   3.088130   0.000000   0.000000
                                    CHANNELS 3 Zrotation Xrotation Yrotation
                                    JOINT LeftFinger02
                                    {
                                        OFFSET   2.639460   0.000000   0.000000
                                        CHANNELS 3 Zrotation Xrotation Yrotation
                                        End Site
                                        {
                                            OFFSET   2.582190   0.000000   0.000000
                                        }
                                    }
                                }
                            }
                            JOINT LeftFinger1
                            {
                                OFFSET   8.364480   0.000000   3.252850
                                CHANNELS 3 Zrotation Xrotation Yrotation
                                JOINT LeftFinger11
                                {
                                    OFFSET   4.646930   0.000000   0.000000
                                    CHANNELS 3 Zrotation Xrotation Yrotation
                                    JOINT LeftFinger12
                                    {
                                        OFFSET   2.323460   0.000000   0.000000
                                        CHANNELS 3 Zrotation Xrotation Yrotation
                                        End Site
                                        {
                                            OFFSET   2.273050   0.000000   0.000000
                                        }
                                    }
                                }
                            }
                            JOINT LeftFinger2
                            {
                                OFFSET   8.364480   0.000016   1.078090
                                CHANNELS 3 Zrotation Xrotation Yrotation
                                JOINT LeftFinger21
                                {
                                    OFFSET   5.111620   0.000000   0.000000
                                    CHANNELS 3 Zrotation Xrotation Yrotation
                                    JOINT LeftFinger22
                                    {
                                        OFFSET   2.788160   0.000017   0.000000
                                        CHANNELS 3 Zrotation Xrotation Yrotation
                                        End Site
                                        {
                                            OFFSET   2.727660   0.000000   0.000000
                                        }
                                    }
                                }
                            }
                            JOINT LeftFinger3
                            {
                                OFFSET   7.899780   0.000015  -1.078090
                                CHANNELS 3 Zrotation Xrotation Yrotation
                                JOINT LeftFinger31
                                {
                                    OFFSET   4.646920   0.000000   0.000000
                                    CHANNELS 3 Zrotation Xrotation Yrotation
                                    JOINT LeftFinger32
                                    {
                                        OFFSET   2.323470   0.000000   0.000000
                                        CHANNELS 3 Zrotation Xrotation Yrotation
                                        End Site
                                        {
                                            OFFSET   2.273050   0.000000   0.000000
                                        }
                                    }
                                }
                            }
                            JOINT LeftFinger4
                            {
                                OFFSET   7.435090   0.000000  -3.252850
                                CHANNELS 3 Zrotation Xrotation Yrotation
                                JOINT LeftFinger41
                                {
                                    OFFSET   3.717550   0.000000   0.000000
                                    CHANNELS 3 Zrotation Xrotation Yrotation
                                    JOINT LeftFinger42
                                    {
                                        OFFSET   1.858760   0.000000   0.000000
                                        CHANNELS 3 Zrotation Xrotation Yrotation
                                        End Site
                                        {
                                            OFFSET   1.818440   0.000000   0.000000
                                        }
                                    }
                                }
                            }
                        }
                    }
                }
            }
            JOINT RightCollar
            {
                OFFSET  -3.911900  19.017000  -0.467062
                CHANNELS 3 Zrotation Xrotation Yrotation
                JOINT RightShoulder
                {
                    OFFSET -10.383700   0.000015   0.000000
                    CHANNELS 3 Zrotation Xrotation Yrotation
                    JOINT RightElbow
                    {
                        OFFSET -26.662100   0.001341   0.000385
                        CHANNELS 3 Zrotation Xrotation Yrotation
                        JOINT RightWrist
                        {
                            OFFSET -28.869000   0.000025  -0.000080
                            CHANNELS 3 Zrotation Xrotation Yrotation
                            JOINT RightFinger0
                            {
                                OFFSET  -2.044650  -2.323490   3.252850
                                CHANNELS 3 Zrotation Xrotation Yrotation
                                JOINT RightFinger01
                                {
                                    OFFSET  -3.088130   0.000000   0.000000
                                    CHANNELS 3 Zrotation Xrotation Yrotation
                                    JOINT RightFinger02
                                    {
                                        OFFSET  -2.639460   0.000000   0.000000
                                        CHANNELS 3 Zrotation Xrotation Yrotation
                                        End Site
                                        {
                                            OFFSET  -2.582190   0.000000   0.000000
                                        }
                                    }
                                }
                            }
                            JOINT RightFinger1
                            {
                                OFFSET  -8.364480   0.000000   3.252850
                                CHANNELS 3 Zrotation Xrotation Yrotation
                                JOINT RightFinger11
                                {
                                    OFFSET  -4.646930   0.000000   0.000000
                                    CHANNELS 3 Zrotation Xrotation Yrotation
                                    JOINT RightFinger12
                                    {
                                        OFFSET  -2.323470   0.000000   0.000000
                                        CHANNELS 3 Zrotation Xrotation Yrotation
                                        End Site
                                        {
                                            OFFSET  -2.273050   0.000000   0.000000
                                        }
                                    }
                                }
                            }
                            JOINT RightFinger2
                            {
                                OFFSET  -8.364480   0.000000   1.078090
                                CHANNELS 3 Zrotation Xrotation Yrotation
                                JOINT RightFinger21
                                {
                                    OFFSET  -5.111610   0.000000   0.000000
                                    CHANNELS 3 Zrotation Xrotation Yrotation
                                    JOINT RightFinger22
                                    {
                                        OFFSET  -2.788160   0.000000   0.000000
                                        CHANNELS 3 Zrotation Xrotation Yrotation
                                        End Site
                                        {
                                            OFFSET  -2.727660   0.000000   0.000000
                                        }
                                    }
                                }
                            }
                            JOINT RightFinger3
                            {
                                OFFSET  -7.899780   0.000000  -1.078090
                                CHANNELS 3 Zrotation Xrotation Yrotation
                                JOINT RightFinger31
                                {
                                    OFFSET  -4.646920   0.000000   0.000000
                                    CHANNELS 3 Zrotation Xrotation Yrotation
                                    JOINT RightFinger32
                                    {
                                        OFFSET  -2.323470   0.000000   0.000000
                                        CHANNELS 3 Zrotation Xrotation Yrotation
                                        End Site
                                        {
                                            OFFSET  -2.273050   0.000000   0.000000
                                        }
                                    }
                                }
                            }
                            JOINT RightFinger4
                            {
                                OFFSET  -7.435090   0.000000  -3.252850
                                CHANNELS 3 Zrotation Xrotation Yrotation
                                JOINT RightFinger41
                                {
                                    OFFSET  -3.717550   0.000000   0.000000
                                    CHANNELS 3 Zrotation Xrotation Yrotation
                                    JOINT RightFinger42
                                    {
                                        OFFSET  -1.858770   0.000000   0.000000
                                        CHANNELS 3 Zrotation Xrotation Yrotation
                                        End Site
                                        {
                                            OFFSET  -1.818440   0.000000   0.000000
                                        }
                                    }
                                }
                            }
                        }
                    }
                }
            }
        }
    }
    JOINT LeftHip
    {
        OFFSET   9.783010   0.000000   0.000000
        CHANNELS 3 Zrotation Xrotation Yrotation
        JOINT LeftKnee
        {
            OFFSET   0.000070 -41.789100   0.000028
            CHANNELS 3 Zrotation Xrotation Yrotation
            JOINT LeftAnkle
            {
                OFFSET   0.000087 -41.133200  -0.000100
                CHANNELS 3 Zrotation Xrotation Yrotation
                JOINT LeftToe
                {
                    OFFSET   0.000000  -6.358960  14.674500
                    CHANNELS 3 Zrotation Xrotation Yrotation
                    End Site
                    {
                        OFFSET   0.000000   0.000000   3.913200
                    }
                }
            }
        }
    }
    JOINT RightHip
    {
        OFFSET  -9.783020   0.000000   0.000000
        CHANNELS 3 Zrotation Xrotation Yrotation
        JOINT RightKnee
        {
            OFFSET   0.000044 -41.789100  -0.000870
            CHANNELS 3 Zrotation Xrotation Yrotation
            JOINT RightAnkle
            {
                OFFSET  -0.000090 -41.133200  -0.000245
                CHANNELS 3 Zrotation Xrotation Yrotation
                JOINT RightToe
                {
                    OFFSET   0.000000  -6.358960  14.674500
                    CHANNELS 3 Zrotation Xrotation Yrotation
                    End Site
                    {
                        OFFSET   0.000000   0.000000   3.913200
                    }
                }
            }
        }
    }
}
MOTION
Frames: 4
Frame Time:   0.016667
 -0.360708  89.578700  -0.677567  -2.638060  -8.746700  -0.360839   0.584682   5.427430   0.231010   1.155100  10.857000   0.408856   0.816099  -0.505736   0.007681   1.355150  -1.006070   3.365730  -8.569560  -2.665250  -1.166290 -70.400200  17.968100   2.388170  -1.599870  -4.867470 -19.389700  12.843600  -8.881530   3.549330  39.810400  37.732600 -64.399000 -36.036200  -0.000966  -0.000664 -13.015900  -0.000471  -0.002409 -26.291600   3.755830  -7.552670 -21.714200   0.001714   0.000576 -15.209300   0.001066  -0.007807 -32.158600   2.185850  -3.471560 -48.337300  -0.004381  -0.003817 -32.192600   0.001317  -0.005705 -29.227200   2.005340  -3.578760 -43.934800   0.001489  -0.000799 -29.260600   0.000714   0.000703 -36.103600  -0.807390   1.106670 -54.167100   0.001639  -0.000758 -36.075300   0.000755   0.000790  12.822100  -0.464754  10.196400  67.832700   7.565070  -6.607720  -0.862950 -10.678800  12.108200  -7.465240  -9.465820  -1.310840 -32.877100  21.037400  51.101800  35.786600  -0.002624   0.001997  12.898300   0.000358   0.001894  30.217700   8.565930  14.345100  25.617600  -0.001273   0.000484  17.932400  -0.006134   0.000614  30.628300   4.955880   8.311150  46.482200  -0.001969  -0.001324  30.957100   0.003134   0.001458  28.531900   3.983170   7.302390  41.311600  -0.002773  -0.003261  27.513500   0.009635   0.000325  38.991600  -0.786120  -0.970945  58.497400  -0.007377  -0.001803  38.959300   0.004339   0.001456   2.091830  10.289800   4.260120   1.199500  -0.028850   6.534230  -1.001670  -2.559680   3.116510   0.000000   0.000000   0.000000   4.435700   6.796640   0.509308  -2.141300   5.713620  -7.886680  -0.160102  -4.579220  -1.243320   0.000000   0.000000   0.000000
 -0.353130  89.578700  -0.672489  -2.637870  -8.762270  -0.358990   0.584450   5.437630   0.233850   1.154140  10.877400   0.414521   0.821740  -0.505604   0.007687   1.360810  -1.009320   3.358830  -8.563690  -2.680060  -1.166760 -70.397400  17.988700   2.376650  -1.597840  -4.863530 -19.389600  12.833500  -8.898500   3.539410  39.805900  37.739000 -64.409400 -36.036200  -0.000963  -0.000649 -13.015800  -0.000479  -0.002416 -26.299700   3.759670  -7.557740 -21.721100   0.001740   0.000576 -15.209500   0.001077  -0.007810 -32.165200   2.190950  -3.478740 -48.347500  -0.004353  -0.003796 -32.199500   0.001315  -0.005681 -29.235000   2.010140  -3.586160 -43.947000   0.001525  -0.000761 -29.268700   0.000729   0.000720 -36.106200  -0.800876   1.097740 -54.170700   0.001675  -0.000725 -36.077700   0.000771   0.000806  12.837200  -0.490623  10.221000  67.819700   7.580130  -6.614030  -0.866136 -10.687700  12.102700  -7.477940  -9.451940  -1.310780 -32.877700  21.036700  51.103500  35.786500  -0.002666   0.002033  12.896700   0.000363   0.001915  30.221500   8.568790  14.347900  25.618000  -0.001228   0.000429  17.932700  -0.006149   0.000570  30.640800   4.956030   8.306520  46.500800  -0.001967  -0.001341  30.969500   0.003111   0.001402  28.532200   3.983360   7.297790  41.342100  -0.002729  -0.003283  27.533800   0.009642   0.000279  39.012400  -0.791951  -0.977410  58.528700  -0.007339  -0.001829  38.980200   0.004318   0.001435   2.091970  10.290100   4.260040   1.199710   0.027348   6.534030  -0.998613  -2.593060   3.116920  -0.000000   0.000000  -0.000000   4.436140   6.809990   0.505062  -2.147670   5.726050  -7.886820  -0.155086  -4.588690  -1.243220   0.000000   0.000000   0.000000
 -0.340597  89.578700  -0.663038  -2.637190  -8.790630  -0.353371   0.584504   5.455960   0.238315   1.154000  10.914000   0.423310   0.830775  -0.505472   0.007702   1.370020  -1.015530   3.344490  -8.554460  -2.703460  -1.169210 -70.391500  18.019800   2.353820  -1.592920  -4.851390 -19.389300  12.816300  -8.915590   3.518050  39.806800  37.750900 -64.428600 -36.036200  -0.000958  -0.000626 -13.015800  -0.000487  -0.002426 -26.307500   3.764930  -7.565460 -21.728100   0.001796   0.000576 -15.209900   0.001105  -0.007813 -32.176700   2.199210  -3.490260 -48.365600  -0.004285  -0.003742 -32.211500   0.001311  -0.005621 -29.250300   2.018030  -3.597960 -43.970600   0.001601  -0.000673 -29.284400   0.000762   0.000759 -36.111600  -0.789610   1.082210 -54.178500   0.001752  -0.000648 -36.082900   0.000807   0.000842  12.864900  -0.536918  10.260300  67.793200   7.602870  -6.627900  -0.874995 -10.702300  12.097500  -7.490630  -9.438060  -1.310710 -32.879700  21.034400  51.109000  35.786400  -0.002748   0.002090  12.893200   0.000374   0.001962  30.223800   8.574600  14.355600  25.618500  -0.001130   0.000305  17.933000  -0.006187   0.000467  30.665100   4.956320   8.297540  46.536900  -0.001963  -0.001379  30.993600   0.003055   0.001276  28.532900   3.983570   7.290050  41.393600  -0.002629  -0.003331  27.568100   0.009662   0.000174  39.042700  -0.800472  -0.986858  58.574400  -0.007253  -0.001886  39.010600   0.004265   0.001389   2.092120  10.292700   4.259480   1.199920   0.083547   6.532840  -0.992321  -2.628810   3.117320   0.000000   0.000000   0.000000   4.437090   6.835840   0.496296  -2.157870   5.746190  -7.887060  -0.145923  -4.605400  -1.243130  -0.000000   0.000000  -0.000000
 -0.331050  89.578600  -0.653306  -2.639310  -8.817800  -0.342905   0.586251   5.473030   0.241978   1.157380  10.948200   0.430129   0.838715  -0.506652   0.007727   1.378480  -1.022900   3.321990  -8.546520  -2.717100  -1.171840 -70.382700  18.041900   2.320140  -1.589540  -4.826540 -19.388400  12.800500  -8.915800   3.489220  39.828000  37.774400 -64.446000 -36.030700  -0.000951  -0.000608 -13.015700  -0.000485  -0.002434 -26.301600   3.765920  -7.567830 -21.723300   0.001873   0.000577 -15.210400   0.001149  -0.007815 -32.186800   2.204250  -3.496890 -48.381100  -0.004179  -0.003659 -32.221800   0.001306  -0.005533 -29.265500   2.023050  -3.604670 -43.993700   0.001706  -0.000543 -29.299900   0.000815   0.000815 -36.117700  -0.779235   1.067760 -54.187300   0.001855  -0.000540 -36.088800   0.000856   0.000896  12.894500  -0.582513  10.289000  67.763300   7.612030  -6.651690  -0.891352 -10.716500  12.100400  -7.480620  -9.445680  -1.303610 -32.886000  21.042100  51.128800  35.775500  -0.002842   0.002128  12.886800   0.000390   0.002023  30.218800   8.583580  14.372500  25.615900  -0.000995   0.000128  17.931300  -0.006246   0.000318  30.695100   4.956700   8.286510  46.581200  -0.001958  -0.001432  31.023100   0.002968   0.001094  28.533500   3.982920   7.283990  41.437600  -0.002485  -0.003394  27.597400   0.009695   0.000023  39.058000  -0.804408  -0.991642  58.597500  -0.007129  -0.001965  39.025900   0.004185   0.001324   2.090600  10.325500   4.255390   1.198440   0.073709   6.530790  -0.983195  -2.630390   3.115180  -0.000000   0.000000   0.000000   4.438330   6.864030   0.484715  -2.164130   5.760070  -7.891730  -0.136059  -4.620380  -1.243190  -0.000000   0.000000   0.000000
